<svg id="_10" data-name="+10" xmlns="http://www.w3.org/2000/svg" width="16.733" height="16.728" viewBox="0 0 16.733 16.728">
  <g id="_-10" data-name="-10" transform="translate(0 0)">
    <path id="Tracé_293" data-name="Tracé 293" d="M2.875,3.9c.15-.024.3-.046.439-.071a.628.628,0,1,1,.227,1.234c-.649.118-1.3.231-1.947.345a.632.632,0,0,1-.819-.564q-.185-1-.352-2.006a.616.616,0,0,1,.488-.715.622.622,0,0,1,.738.484c.042.188.072.379.107.565.364-.368.7-.747,1.072-1.077a8.362,8.362,0,1,1-2.7,7.688A12.508,12.508,0,0,1,0,8.208a.61.61,0,0,1,.63-.67.628.628,0,0,1,.619.69,6.72,6.72,0,0,0,.792,3.395,6.882,6.882,0,0,0,6.35,3.833,7,7,0,0,0,6.93-5.66A7.06,7.06,0,0,0,9.647,1.379a6.945,6.945,0,0,0-6.67,2.343c-.035.038-.067.08-.1.122-.006.009,0,.025,0,.06" transform="translate(0 -0.001)" fill="#fff"/>
    <path id="Tracé_294" data-name="Tracé 294" d="M7.232,8.045c-.182.058-.342.111-.5.161A.527.527,0,1,1,6.4,7.213q.556-.188,1.114-.37a.522.522,0,0,1,.754.527q.006,2.342,0,4.684a.524.524,0,0,1-.38.569.487.487,0,0,1-.574-.224.85.85,0,0,1-.083-.373c-.006-1.248,0-2.5,0-3.744V8.045" transform="translate(-1.193 -1.359)" fill="#fff"/>
    <path id="Tracé_295" data-name="Tracé 295" d="M13.676,8.572A1.875,1.875,0,0,0,11.836,6.79,1.835,1.835,0,0,0,9.952,8.426a20.151,20.151,0,0,0,0,2.583,1.837,1.837,0,0,0,1.884,1.637,1.877,1.877,0,0,0,1.839-1.783c.014-.378,0-.757,0-1.136s.012-.771,0-1.156m-1.038,2.2a.827.827,0,0,1-.864.824.838.838,0,0,1-.807-.863c0-.339,0-.679,0-1.018s0-.679,0-1.018a.838.838,0,0,1,.807-.864.826.826,0,0,1,.864.823q.023,1.058,0,2.114" transform="translate(-1.979 -1.356)" fill="#fff"/>
  </g>
</svg>
