<svg id="_10" data-name="+10" xmlns="http://www.w3.org/2000/svg" width="16.683" height="16.677" viewBox="0 0 16.683 16.677">
  <g id="Groupe_1134" data-name="Groupe 1134" transform="translate(0 0)">
    <path id="Tracé_294" data-name="Tracé 294" d="M7.232,8.045c-.182.058-.342.111-.5.161A.527.527,0,1,1,6.4,7.213q.556-.188,1.114-.37a.522.522,0,0,1,.754.527q.006,2.342,0,4.684a.524.524,0,0,1-.38.569.487.487,0,0,1-.574-.224.85.85,0,0,1-.083-.373c-.006-1.248,0-2.5,0-3.744V8.045" transform="translate(-1.093 -1.359)" fill="#fff"/>
    <path id="Tracé_295" data-name="Tracé 295" d="M13.676,8.572A1.875,1.875,0,0,0,11.836,6.79,1.835,1.835,0,0,0,9.952,8.426a20.151,20.151,0,0,0,0,2.583,1.837,1.837,0,0,0,1.884,1.637,1.877,1.877,0,0,0,1.839-1.783c.014-.378,0-.757,0-1.136s.012-.771,0-1.156m-1.038,2.2a.827.827,0,0,1-.864.824.838.838,0,0,1-.807-.863c0-.339,0-.679,0-1.018s0-.679,0-1.018a.838.838,0,0,1,.807-.864.826.826,0,0,1,.864.823q.023,1.058,0,2.114" transform="translate(-1.88 -1.356)" fill="#fff"/>
    <path id="Tracé_296" data-name="Tracé 296" d="M13.817,3.892c-.149-.024-.294-.045-.438-.071a.626.626,0,1,0-.227,1.23c.647.117,1.294.231,1.941.344a.631.631,0,0,0,.817-.563q.184-1,.351-2a.614.614,0,0,0-.487-.713.621.621,0,0,0-.736.483c-.042.188-.072.378-.107.563-.363-.367-.695-.745-1.069-1.074a8.337,8.337,0,1,0,2.7,7.665,12.471,12.471,0,0,0,.122-1.574.608.608,0,0,0-.628-.668.627.627,0,0,0-.618.688,6.7,6.7,0,0,1-.79,3.385A6.861,6.861,0,0,1,8.316,15.41,6.981,6.981,0,0,1,1.407,9.766,7.039,7.039,0,0,1,7.065,1.375a6.924,6.924,0,0,1,6.65,2.336c.035.038.067.08.1.121.006.009,0,.025,0,.06" transform="translate(0 -0.001)" fill="#fff"/>
  </g>
</svg>
