<svg xmlns="http://www.w3.org/2000/svg" width="16.394" height="16.777" viewBox="0 0 16.394 16.777">
  <g id="Groupe_1137" data-name="Groupe 1137" transform="translate(0.05 0.05)">
    <g id="Groupe_1138" data-name="Groupe 1138" transform="translate(0)">
      <path id="Tracé_297" data-name="Tracé 297" d="M18.756,5.627a.566.566,0,0,1-.388.39.511.511,0,0,1-.638-.509c-.021-1.025-.038-2.049-.058-3.073,0-.21-.008-.422-.012-.665-.066.063-.107.1-.146.142q-2.627,2.726-5.257,5.45a.831.831,0,0,1-.295.208.488.488,0,0,1-.574-.2.51.51,0,0,1,.049-.623c.21-.227.428-.447.643-.67l4.688-4.864a.453.453,0,0,0,.118-.161l-.16,0q-1.768.033-3.537.065A.513.513,0,0,1,12.641.5a.559.559,0,0,1,.375-.4L18.267,0a.7.7,0,0,1,.391.377Z" transform="translate(-2.462)" fill="#fff" stroke="#707070" stroke-width="0.1"/>
      <path id="Tracé_298" data-name="Tracé 298" d="M1.139,17.429c.036-.046.069-.1.109-.138q2.632-2.733,5.264-5.465a.559.559,0,0,1,.477-.21.481.481,0,0,1,.417.3.488.488,0,0,1-.063.513,1.635,1.635,0,0,1-.141.153L1.981,18c-.04.041-.088.077-.131.114.006.014.013.028.018.042l.166,0q1.761-.032,3.522-.064a.524.524,0,0,1,.55.372.515.515,0,0,1-.463.649c-.043,0-.085,0-.128,0l-4.8.089c-.417.008-.614-.18-.622-.591Q.044,16.182,0,13.749a.516.516,0,0,1,.4-.56.51.51,0,0,1,.624.494c.009.261.011.523.016.785q.026,1.385.051,2.769l0,.171.047.022" transform="translate(0 -2.529)" fill="#fff" stroke="#707070" stroke-width="0.1"/>
    </g>
  </g>
</svg>
