<svg xmlns="http://www.w3.org/2000/svg" width="16.157" height="15.085" viewBox="0 0 16.157 15.085">
  <g id="sound" transform="translate(0.05 0.047)">
    <g id="Groupe_1379" data-name="Groupe 1379" transform="translate(0 0)">
      <path id="Tracé_299" data-name="Tracé 299" d="M0,5.2a1.068,1.068,0,0,1,.593-.8,1.588,1.588,0,0,1,.574-.117c.742-.013,1.483,0,2.225-.009a.484.484,0,0,0,.28-.1Q6.174,2.191,8.667.191A.6.6,0,0,1,9.239.022.525.525,0,0,1,9.627.5c0,.052,0,.1,0,.156q0,6.835,0,13.667a.637.637,0,0,1-.186.526.551.551,0,0,1-.755-.041q-.961-.767-1.921-1.537Q5.217,12.028,3.66,10.789a.443.443,0,0,0-.253-.085c-.752-.006-1.5,0-2.257,0A1.064,1.064,0,0,1,.026,9.851C.019,9.826.009,9.8,0,9.779V5.2m8.551,8.122V1.665c-.039.028-.065.044-.088.063q-2.051,1.639-4.1,3.283a.286.286,0,0,0-.08.2c0,1.521,0,3.042-.005,4.562A.256.256,0,0,0,4.387,10Q6.013,11.29,7.632,12.59l.919.733M3.2,5.366H1.079V9.619H3.2Z" transform="translate(0 0)" fill="#fff" stroke="#707070" stroke-width="0.1"/>
      <path id="Tracé_300" data-name="Tracé 300" d="M18.26,8.024A7.294,7.294,0,0,1,16.1,13.082a.537.537,0,1,1-.769-.742,6.413,6.413,0,0,0,1.52-2.473,6.392,6.392,0,0,0-1.511-6.519.552.552,0,0,1-.164-.6.5.5,0,0,1,.438-.354.57.57,0,0,1,.5.209A7.405,7.405,0,0,1,18,5.9a7.974,7.974,0,0,1,.256,2.129" transform="translate(-2.203 -0.348)" fill="#fff" stroke="#707070" stroke-width="0.1"/>
      <path id="Tracé_301" data-name="Tracé 301" d="M15.857,8.2a5.218,5.218,0,0,1-1.535,3.639.536.536,0,0,1-.771.046.525.525,0,0,1-.012-.769,4.92,4.92,0,0,0,.884-1.284,4.3,4.3,0,0,0-.716-4.579c-.068-.073-.136-.145-.2-.222a.531.531,0,0,1,.044-.735.52.52,0,0,1,.746.026,7.282,7.282,0,0,1,.656.8,5.315,5.315,0,0,1,.9,3.083" transform="translate(-1.946 -0.604)" fill="#fff" stroke="#707070" stroke-width="0.1"/>
    </g>
  </g>
</svg>
