<svg xmlns="http://www.w3.org/2000/svg" width="13.081" height="15.28" viewBox="0 0 13.081 15.28">
  <g id="sound" transform="translate(0.05 0.15)">
    <g id="Groupe_1379" data-name="Groupe 1379" transform="translate(0 0)">
      <path id="Tracé_299" data-name="Tracé 299" d="M0,5.2a1.068,1.068,0,0,1,.593-.8,1.588,1.588,0,0,1,.574-.117c.742-.013,1.483,0,2.225-.009a7.222,7.222,0,0,0,.893-.692C5.953,2.258,7,1.523,8.667.191A.6.6,0,0,1,9.239.022.525.525,0,0,1,9.627.5c0,.052,0,.1,0,.156q0,6.835,0,13.667a.637.637,0,0,1-.186.526.551.551,0,0,1-.755-.041q-.961-.767-1.921-1.537Q5.217,12.028,3.66,10.789a.443.443,0,0,0-.253-.085c-.752-.006-1.5,0-2.257,0A1.064,1.064,0,0,1,.026,9.851C.019,9.826.009,9.8,0,9.779V5.2m8.551,8.122V1.665c-.039.028-.065.044-.088.063C7.1,2.821,6.489,3.189,5.126,4.287a9.453,9.453,0,0,0-.84.923c0,1.521,0,3.042-.005,4.562A.256.256,0,0,0,4.387,10Q6.013,11.29,7.632,12.59l.919.733M3.2,5.366H1.079V9.619H3.2Z" transform="translate(0 0)" fill="#fff" stroke="#707070" stroke-width="0.1"/>
      <g id="Rectangle_612" data-name="Rectangle 612" transform="matrix(0.788, -0.616, 0.616, 0.788, 0.865, 0.606)" fill="#fff" stroke="#707070" stroke-width="0.1">
        <rect width="1" height="18.253" stroke="none"/>
        <rect x="-0.05" y="-0.05" width="1.1" height="18.353" fill="none"/>
      </g>
    </g>
  </g>
</svg>
