<svg xmlns="http://www.w3.org/2000/svg" width="18" height="17.487" viewBox="0 0 18 17.487">
  <g id="Icons_16px_danger_star" data-name="Icons/16px/danger/star" transform="translate(1 1)">
    <g id="star-rate" transform="translate(0 -0.257)">
      <g id="Path" transform="translate(0 0.257)" fill="none" stroke-linecap="round" stroke-linejoin="round" stroke-miterlimit="10">
        <path d="M8,0,9.846,5.9H16L11.11,9.572l1.922,5.915L8,11.831,2.968,15.487,4.89,9.572,0,5.9H6.154L8,0Z" stroke="none"/>
        <path d="M 8 -4.76837158203125e-06 L 6.153849601745605 5.897234916687012 L 0 5.897234916687012 L 4.889849662780762 9.571695327758789 L 2.968000411987305 15.48676490783691 L 8 11.83076477050781 L 13.0319995880127 15.48676490783691 L 11.11014938354492 9.571695327758789 L 16 5.897234916687012 L 9.846149444580078 5.897234916687012 L 8 -4.76837158203125e-06 M 8 -1.000004768371582 C 8.437200546264648 -1.000004768371582 8.823709487915039 -0.7159948348999023 8.954330444335938 -0.2987651824951172 L 10.58095455169678 4.897234916687012 L 16 4.897234916687012 C 16.43025970458984 4.897234916687012 16.81229019165039 5.172454833984375 16.94853973388672 5.580564498901367 C 17.08478927612305 5.98868465423584 16.94470977783203 6.438204765319824 16.60074043273926 6.696675300598145 L 12.28193283081055 9.942026138305664 L 13.98305988311768 15.17775440216064 C 14.11693000793457 15.58978462219238 13.97027015686035 16.04114532470703 13.61977958679199 16.29578399658203 C 13.26929092407227 16.55042457580566 12.79469966888428 16.55042457580566 12.44421005249023 16.29577445983887 L 8 13.06683349609375 L 3.555789947509766 16.29577445983887 C 3.205299377441406 16.55042457580566 2.730709075927734 16.55042457580566 2.380220413208008 16.29578399658203 C 2.029729843139648 16.04114532470703 1.88306999206543 15.58978462219238 2.016940116882324 15.17775440216064 L 3.718067169189453 9.942026138305664 L -0.6007404327392578 6.696675300598145 C -0.9447097778320312 6.438204765319824 -1.084789276123047 5.98868465423584 -0.9485397338867188 5.580564498901367 C -0.8122901916503906 5.172454833984375 -0.4302597045898438 4.897234916687012 0 4.897234916687012 L 5.419045448303223 4.897234916687012 L 7.045669555664062 -0.2987651824951172 C 7.176289558410645 -0.7159948348999023 7.562800407409668 -1.000004768371582 8 -1.000004768371582 Z" stroke="none" fill="#344675"/>
      </g>
    </g>
  </g>
</svg>
